# xmcd
#
# Track frame offsets:
#	150
#	15285
#	30421
#	50096
#	70875
#	83600
#	100587
#	118269
#	134025
#	154139
#	169096
#	187093
#	206978
#
# Disc length: 2954 seconds
#
# Revision: 4
# Processed by: cddbd v1.5.2PL0 Copyright (c) Steve Scherf et al.
# Submitted via: audiograbber 1.83.01
#
DISCID=b20b880d
DTITLE=Andreas Gabalier - Da komm´ ich her
DYEAR=2009
DGENRE=Volksmusik
TTITLE0=Mit Dir
TTITLE1=So liab hob i Di
TTITLE2=Steirerland (Remastered 2009)
TTITLE3=Auf der Alm
TTITLE4=Fesche Madln
TTITLE5=That´s Life
TTITLE6=Obersteirer
TTITLE7=Meine Heimat
TTITLE8=In Deine Arm zu liegn
TTITLE9=Ohne Di
TTITLE10=Amoi seg´ ma uns wieder
TTITLE11=Steirerland
TTITLE12=So liab hob I Di (Unplugged)
EXTD=
EXTT0=
EXTT1=
EXTT2=
EXTT3=
EXTT4=
EXTT5=
EXTT6=
EXTT7=
EXTT8=
EXTT9=
EXTT10=
EXTT11=
EXTT12=
PLAYORDER=
